PathFileType	4	(X/Y/Z)	pose_F01_0-82.trc
DataRate	CameraRate	NumFrames	NumMarkers	Units	OrigDataRate	OrigDataStartFrame	OrigNumFrames
30	30	7	21	m	30	10	82
Frame#	Time	CHip			RHip			RKnee			RAnkle			RBigToe			RSmallToe			RHeel			LHip			LKnee			LAnkle			LBigToe			LSmallToe			LHeel			Neck			Nose			RShoulder			RElbow			RWrist			LShoulder			LElbow			LWrist			
		X1	Y1	Z1	X2	Y2	Z2	X3	Y3	Z3	X4	Y4	Z4	X5	Y5	Z5	X6	Y6	Z6	X7	Y7	Z7	X8	Y8	Z8	X9	Y9	Z9	X10	Y10	Z10	X11	Y11	Z11	X12	Y12	Z12	X13	Y13	Z13	X14	Y14	Z14	X15	Y15	Z15	X16	Y16	Z16	X17	Y17	Z17	X18	Y18	Z18	X19	Y19	Z19	X20	Y20	Z20	X21	Y21	Z21	
10	0.3333333333333333	-0.27266535905554296	1.83330074609476	-0.5856025525092853	-0.2815096205677852	1.830480713579929	-0.5243804840132523	-0.2735229069435802	1.7062983247929047	-0.5008408424049	-0.287378149353393	1.581941528502756	-0.4368304962714779	-0.2647848280787756	1.5552563033452056	-0.45380474976518537	-0.2709630594610021	1.5597173591118263	-0.4195997473978865	-0.29335704349233827	1.5747607634352787	-0.43460218432564635	-0.26072439906708444	1.8348465951900461	-0.6487158353871264	-0.2739800342513013	1.7076874664991726	-0.618276238938888	-0.27528906812219517	1.5933472535725026	-0.6033589834849813	-0.2427856483402804	1.5644539812738638	-0.6474842249075382	-0.24784108709821054	1.5693145904785504	-0.6679126683400112	-0.2787668145204782	1.5816157159195876	-0.5854580566355722	-0.2704320450645122	1.982420989706731	-0.6048172024350829	-0.24009556459351208	2.0369014740574225	-0.6386288403227091	-0.2803269801028828	1.9797393018126601	-0.5142388850947099	-0.2810244388668726	1.9041458242551184	-0.46393765534897835	-0.2509083535646697	1.9195751090710926	-0.5802713905655841	-0.2560691278225057	1.9865911752216947	-0.697322767416493	-0.25347018480806077	1.917759415806224	-0.7412099640050366	-1.2062429773758283	1.8371403528604324	0.3132646740249023
11	0.36666666666666664	-0.27384149687720466	1.835009530726117	-0.5804008798683492	-0.28144747770492173	1.8334851827920524	-0.5245562936837513	-0.27653320361203393	1.708857113308225	-0.49350106802013805	-0.28904543176805725	1.5901284829092954	-0.42673976397104846	-0.27215847101099394	1.5587583983266426	-0.4327309352783044	-0.2794672581414253	1.559968968849427	-0.3963335899931921	-0.2957966094705292	1.5784212347364626	-0.4270850844798783	-0.2628441202044029	1.8350592232627767	-0.6463735342856081	-0.27360887578999893	1.710396004563389	-0.6188750857712375	-0.27602928883028266	1.5918278630635203	-0.6068785042448084	-0.24390375905119535	1.5648279878714004	-0.650477110861698	-0.24857202905422296	1.5701571592622345	-0.6671763524806262	-0.27963360676270055	1.5803701408518562	-0.5889950157759114	-0.27143527930857214	1.98220286279575	-0.5997172771450338	-0.23925483660467683	2.0368188911200376	-0.6356704307711516	-0.27831702222520754	1.9783593839054705	-0.5158524804578032	-0.2832763067871255	1.900388307142702	-0.4609940334652784	-0.25341405881888873	1.9180467269642891	-0.5693429113422456	-0.2551910817620536	1.9864222364594752	-0.6943259685515651	-0.2523342365647839	1.9128235502675208	-0.7345200770420924	-1.2319288202711924	1.8366531634567818	0.3444026119126683
12	0.4	-0.27289131496866775	1.834821039388377	-0.5770039487266257	-0.28049266394737243	1.8334784477798876	-0.5211234289998186	-0.27887574104544754	1.7093506920671693	-0.4819761782601281	-0.2926525359252363	1.584158868111559	-0.4121991670124414	-0.2716834118413849	1.5585456267944928	-0.41443568382616985	-0.27986443371794556	1.5592983642097915	-0.3813893803775635	-0.3008354738881623	1.5784478894756362	-0.4076151053326638	-0.2620338867013002	1.8363551190437333	-0.6433165325434029	-0.2720068344995769	1.7094867177813484	-0.6121598760680321	-0.2749843322034866	1.5917934690033495	-0.6036096659505901	-0.24360005032755352	1.5632655833277114	-0.650863224444253	-0.24816177136993608	1.5681132029014837	-0.6674439262221872	-0.2781291371179256	1.5779433454960319	-0.5855976729846138	-0.27144809113471313	1.9822026348821302	-0.5995483942808211	-0.24141492380018403	2.035620354790806	-0.633481939037971	-0.2813713905759832	1.9795632647301413	-0.5088740156379127	-0.29007111338808483	1.9025469056809499	-0.4496192549810401	-0.2629354353562262	1.9141039190128428	-0.5630110319132486	-0.2571873100208893	1.986280912728893	-0.6921890009218173	-0.2558643159578953	1.9097095312965031	-0.7265459463176847	-1.2512084284275173	1.83570426425761	0.37541547337683373
13	0.43333333333333335	-0.2739397032367614	1.834846183159828	-0.5714946960308197	-0.28043877174351856	1.8334045073243144	-0.5124573769742895	-0.278121610977966	1.7116336231328828	-0.4697852854819668	-0.29675263330751833	1.5911366788997718	-0.39034505207329534	-0.2776310897001971	1.5585901922731076	-0.3894979339337527	-0.2872754138663715	1.561203166244638	-0.3548862728028869	-0.3030610482447013	1.579923693403776	-0.39134076689607145	-0.2644470449450764	1.8364999003222249	-0.6324745577015994	-0.27205429720674806	1.7092989770948053	-0.6035458614767767	-0.27514012150260864	1.5901296327579937	-0.6031051973768612	-0.24259346385876376	1.5629277059434332	-0.6477157680691426	-0.24613025027301993	1.5685096557048614	-0.6695153525465996	-0.27644000737271246	1.5777092459466042	-0.5872718415432375	-0.26965924705577776	1.981998326605936	-0.5931568059639127	-0.24259914294000248	2.035569158338659	-0.6280667608795523	-0.2823651904658262	1.9793570817071495	-0.5034529707803608	-0.2928049560380733	1.9024084972171231	-0.44208368798126507	-0.2513689954159089	1.9155201919955434	-0.5710144776965784	-0.25457113121790664	1.9846858360600492	-0.6824353241372013	-0.266035965120813	1.9087998305337799	-0.7122444734548503	-0.24002881135727094	1.9097420799492062	-0.6648773754227113
14	0.4666666666666667	-0.2730834905479316	1.8347838261482792	-0.5596595502044792	-0.27854359364154213	1.83415653360809	-0.49745497327136956	-0.2868494236142874	1.7114076202306254	-0.44663469865842015	-0.29866083538182386	1.5915428115805115	-0.3737641659558641	-0.2810828176579343	1.5559669725778735	-0.3615683387831464	-0.2900493285475124	1.5600654865893575	-0.33221660280823423	-0.30624313141841897	1.5801937164492177	-0.36897768641723006	-0.2657882898681094	1.8363016079969117	-0.6184197407082791	-0.2705302125403624	1.7137802385411967	-0.6011935122617614	-0.27520861793840407	1.590370847013424	-0.603066605737783	-0.24273670129567443	1.5636373417373721	-0.6472693982728039	-0.2481766413842063	1.5681337058500566	-0.6673400013368367	-0.2764676004593019	1.5777395708951631	-0.5873082409679098	-0.269803101847632	1.9817282574097468	-0.5847299189328907	-0.24496221746534688	2.0351874812293884	-0.6175462919920558	-0.2823108487071626	1.9790161458659021	-0.49497825922011274	-0.29149681482107603	1.9046844746902185	-0.43056273024271313	-0.2567707737808096	1.9099766200514916	-0.5604928316565754	-0.2570430119543634	1.9841870472581788	-0.6717737154893791	-0.26726055095403717	1.9130519808005595	-0.6990682810856044	-0.24551123235961103	1.9059825499525582	-0.6629920438673956
15	0.5	-0.27198927677780765	1.8304726573750427	-0.5296312892750837	-0.28187286768104286	1.827464729073575	-0.4572920869245418	-0.2808713194549819	1.7071621610532453	-0.41165150738335077	-0.2998035883880731	1.5832312868803995	-0.3479546738511625	-0.2826341385967534	1.5538607474234416	-0.3359753441673802	-0.2893440093561222	1.5569544087603735	-0.2995653022438061	-0.30900742073684084	1.5720400498196039	-0.3413787199644943	-0.26009285267501514	1.8327531744289307	-0.5899970820913106	-0.27108870042730865	1.7076767673037536	-0.5911313915885871	-0.27515469515816793	1.5922632500504545	-0.6034926160444372	-0.2417390607616861	1.563377361222779	-0.6439817032408758	-0.24735322543765573	1.5687694408327886	-0.6640865077769624	-0.2798755824701243	1.5787470736361635	-0.5884480842219844	-0.26605361734718963	1.9808556922907725	-0.5551472225925825	-0.24335517957661917	2.0330494416268183	-0.594046311281393	-0.2779590889333978	1.9795280973142408	-0.47333784005225554	-0.2928296340535754	1.9054580395215555	-0.40237958191869816	-0.2572723638994911	1.899472384341942	-0.5155049891623559	-0.2581053671228191	1.983172050786426	-0.6381568130620279	-1.1212543788171876	1.8380523633850236	0.2107697746028683	-0.2404034574876734	1.9308629452460615	-0.6483359747199655
16	0.5333333333333333	-0.2742665380101556	1.8331372492895268	-0.5017237366498647	-0.27976389493739373	1.8315694707120596	-0.4422469924801589	-0.289544372583551	1.7069684150289173	-0.3972990783437516	-0.3009463413943223	1.5749197621802875	-0.32214518174646095	-0.2818761465517487	1.5480029619032964	-0.3311929039591789	-0.291224053295661	1.5500577725373716	-0.2960232026675479	-0.3117717100552627	1.5638863831899903	-0.31377975351175863	-0.2667945291955226	1.8346931746445903	-0.5662957231312861	-0.2722586680248274	1.709731153333686	-0.5685950614570671	-0.2737274958307998	1.5900494347400191	-0.6005258938605673	-0.24175076193190753	1.5641655429115684	-0.6437177777890208	-0.24441951590639174	1.5699359524786238	-0.6628309970651133	-0.27852323648167343	1.5771970291205566	-0.58549669100842	-0.26918598389561593	1.9786663950553218	-0.5301475684807545	-0.2417226612452042	2.0323870319640505	-0.5793854265327044	-0.2794071586775261	1.9773479943401784	-0.44508631517382785	-0.2927130631945743	1.9029161319779329	-0.3790245102346945	-0.26612350252067785	1.8937856891391018	-0.48273360724928127	-0.2556517157856552	1.9802068887718776	-0.6200449392224319	-1.1626407111444776	1.836249877796458	0.2671493466140964	-0.24223390121746202	1.938731670884776	-0.6472458321039785
